<svg width="404" height="318" viewBox="0 0 404 318" fill="none" xmlns="http://www.w3.org/2000/svg">
<g filter="url(#filter0_d_274_97)">
<path d="M263.872 1.63728C301.291 5.18128 347.445 15.4836 373.984 43.506C400.523 71.5284 407.364 117.436 391.704 153.288C376.044 189.14 337.884 215.019 307.802 245.514C277.636 276.009 255.631 311.202 227.691 313.757C199.668 316.312 165.794 286.229 124.914 276.009C84.0347 265.789 36.1494 275.515 14.9678 258.042C-6.29624 240.652 -0.774186 196.228 6.47867 159.552C13.6491 122.875 22.6327 93.9463 36.2318 68.5613C49.9134 43.0939 68.2927 21.0881 91.2876 10.9506C114.282 0.895499 141.893 2.6263 169.915 1.96695C198.02 1.3076 226.537 -1.90673 263.872 1.63728Z" fill="#EF476F"/>
<path d="M263.683 3.62833L263.684 3.62837L307.802 245.514L306.38 244.108C306.379 244.109 306.378 244.109 306.378 244.11C298.793 251.778 291.727 259.734 284.989 267.359L284.078 268.39C277.657 275.655 271.538 282.58 265.488 288.708C252.757 301.604 240.712 310.558 227.509 311.765C220.887 312.369 213.813 311.052 206.199 308.479C198.583 305.906 190.549 302.12 182.013 297.882C179.989 296.878 177.938 295.848 175.859 294.804C160.492 287.09 143.636 278.628 125.399 274.069C108.155 269.758 89.6683 268.953 72.6455 268.211C69.2512 268.064 65.9151 267.918 62.6586 267.748C52.8073 267.234 43.6903 266.497 35.7459 264.826C27.7977 263.155 21.1864 260.579 16.2405 256.499L16.2339 256.494C6.31737 248.384 2.39716 233.722 2.02897 215.988C1.66281 198.351 4.81915 178.253 8.44067 159.94L8.4415 159.935C15.5905 123.369 24.5238 94.6522 37.9937 69.5078C51.5815 44.2149 69.6866 22.6605 92.0915 12.7819C103.287 7.88672 115.678 5.8301 128.852 4.93072C137.617 4.33235 146.61 4.2496 155.793 4.1651C160.469 4.12208 165.193 4.0786 169.962 3.96639C177.38 3.79237 184.795 3.44375 192.369 3.08766C213.682 2.08563 236.252 1.02447 263.683 3.62833Z" stroke="black" stroke-width="4"/>
</g>
<defs>
<filter id="filter0_d_274_97" x="0" y="0" width="404" height="317.91" filterUnits="userSpaceOnUse" color-interpolation-filters="sRGB">
<feFlood flood-opacity="0" result="BackgroundImageFix"/>
<feColorMatrix in="SourceAlpha" type="matrix" values="0 0 0 0 0 0 0 0 0 0 0 0 0 0 0 0 0 0 127 0" result="hardAlpha"/>
<feOffset dx="4" dy="4"/>
<feComposite in2="hardAlpha" operator="out"/>
<feColorMatrix type="matrix" values="0 0 0 0 0 0 0 0 0 0 0 0 0 0 0 0 0 0 1 0"/>
<feBlend mode="normal" in2="BackgroundImageFix" result="effect1_dropShadow_274_97"/>
<feBlend mode="normal" in="SourceGraphic" in2="effect1_dropShadow_274_97" result="shape"/>
</filter>
</defs>
</svg>
