<svg width="412" height="372" viewBox="0 0 412 372" fill="none" xmlns="http://www.w3.org/2000/svg">
<g filter="url(#filter0_d_274_100)">
<path d="M281.201 9.4314C313.18 19.4387 341.035 44.9196 365.104 76.1189C389.088 107.318 409.37 144.236 402.721 177.201C395.989 210.251 362.411 239.348 336.996 268.276C311.665 297.121 294.497 325.798 269.251 337.487C243.92 349.176 210.594 343.962 173.987 349.597C137.379 355.147 97.4895 371.545 74.7675 358.342C52.1297 345.139 46.4912 302.419 35.8035 267.94C25.1999 233.461 9.46284 207.307 5.17091 178.631C0.963131 149.954 8.20049 118.839 25.1999 95.3767C42.2835 71.9982 69.1291 56.2724 96.0588 43.3218C123.073 30.4552 150.087 20.4479 181.645 12.627C213.203 4.89027 249.306 -0.575924 281.201 9.4314Z" fill="#EF476F"/>
<path d="M366.69 74.9L366.688 74.8973C342.525 43.5757 314.357 17.7115 281.798 7.52268C249.346 -2.65891 212.781 2.93462 181.169 10.6845L181.164 10.6857C149.467 18.541 122.326 28.5954 95.1988 41.5161L95.192 41.5194C68.2198 54.4905 40.9799 70.3923 23.5851 94.1967L23.5803 94.2033C6.26377 118.104 -1.08862 149.748 3.19209 178.921L3.19294 178.927C5.37618 193.514 10.4626 207.408 16.2644 221.855C17.3605 224.584 18.4819 227.333 19.6154 230.111C24.5022 242.089 29.6143 254.619 33.8919 268.528L33.8932 268.532C36.2914 276.269 38.4349 284.427 40.588 292.621C40.8194 293.501 41.051 294.383 41.283 295.264C43.6673 304.32 46.0966 313.365 48.9078 321.755C54.4896 338.415 61.7455 353.063 73.7599 360.07L73.7627 360.072C85.8161 367.076 102.145 366.112 119.526 362.97C127.146 361.593 135.095 359.768 143.108 357.93C144.298 357.657 145.489 357.383 146.681 357.111C155.923 355 165.216 352.949 174.287 351.574L174.291 351.573C188.2 349.432 201.596 348.872 214.377 348.338C218.295 348.174 222.155 348.013 225.955 347.809C242.045 346.947 257.047 345.321 270.089 339.303L270.091 339.302C283.109 333.274 293.939 322.919 304.603 310.625C309.514 304.963 314.425 298.848 319.508 292.519C319.948 291.971 320.39 291.42 320.834 290.868C326.4 283.941 332.198 276.771 338.499 269.596C343.754 263.615 349.358 257.627 355.026 251.571C356.183 250.335 357.343 249.096 358.503 247.854C365.332 240.54 372.158 233.119 378.406 225.558C390.877 210.467 401.214 194.619 404.681 177.601L404.682 177.597C408.113 160.583 404.571 142.687 397.244 125.224C389.915 107.754 378.737 90.5718 366.69 74.9Z" stroke="black" stroke-width="4"/>
</g>
<defs>
<filter id="filter0_d_274_100" x="0.000244141" y="0.000732422" width="412" height="371.36" filterUnits="userSpaceOnUse" color-interpolation-filters="sRGB">
<feFlood flood-opacity="0" result="BackgroundImageFix"/>
<feColorMatrix in="SourceAlpha" type="matrix" values="0 0 0 0 0 0 0 0 0 0 0 0 0 0 0 0 0 0 127 0" result="hardAlpha"/>
<feOffset dx="4" dy="4"/>
<feComposite in2="hardAlpha" operator="out"/>
<feColorMatrix type="matrix" values="0 0 0 0 0 0 0 0 0 0 0 0 0 0 0 0 0 0 1 0"/>
<feBlend mode="normal" in2="BackgroundImageFix" result="effect1_dropShadow_274_100"/>
<feBlend mode="normal" in="SourceGraphic" in2="effect1_dropShadow_274_100" result="shape"/>
</filter>
</defs>
</svg>
