<svg width="404" height="392" viewBox="0 0 404 392" fill="none" xmlns="http://www.w3.org/2000/svg">
<g filter="url(#filter0_d_274_106)">
<path d="M281.453 64.0323C309.565 92.558 332.799 118.19 355.702 149.444C378.688 180.781 401.343 217.74 399.938 253.707C398.532 289.592 372.983 324.484 339.414 338.623C305.845 352.761 264.172 346.23 228.619 353.423C193.065 360.616 163.63 381.535 129.234 386.413C94.9201 391.292 55.563 380.212 31.9157 354.581C8.18562 329.031 0.082683 288.93 0 251.144C0 213.358 8.02026 177.887 21.7456 143.904C35.471 109.839 54.9842 77.2616 83.5099 48.984C112.118 20.7064 149.822 -3.27165 185.127 0.366406C220.433 4.08714 253.423 35.5894 281.453 64.0323Z" fill="#EF476F"/>
<path d="M354.089 150.626L354.09 150.627C365.555 166.258 376.879 183.212 385.159 200.695C393.443 218.184 398.625 236.084 397.939 253.629C396.566 288.684 371.543 322.92 338.638 336.78C322.198 343.704 303.692 345.598 284.652 346.63C280.871 346.835 277.065 347.006 273.251 347.178C257.982 347.863 242.597 348.554 228.222 351.463C211.19 354.909 195.56 361.462 180.335 367.846C179.462 368.212 178.59 368.577 177.72 368.941C161.599 375.688 145.863 382.035 128.953 384.433L128.952 384.433C95.1722 389.236 56.5124 378.292 33.3856 353.224L33.3811 353.219C10.1687 328.228 2.08262 288.759 2 251.142C2.00031 213.649 9.95668 178.433 23.6001 144.653L23.6007 144.652C37.2442 110.79 56.6194 78.4575 84.9158 50.4064C99.1193 36.3672 115.539 23.4391 132.731 14.4805C149.932 5.5177 167.784 0.590469 184.92 2.35564C202.067 4.1633 218.8 12.7399 234.833 24.5393C250.857 36.3319 266.014 51.2154 280.029 65.4362L281.453 64.0323L280.029 65.4362C308.104 93.9246 331.265 119.48 354.089 150.626Z" stroke="black" stroke-width="4"/>
</g>
<defs>
<filter id="filter0_d_274_106" x="0" y="0" width="404" height="391.537" filterUnits="userSpaceOnUse" color-interpolation-filters="sRGB">
<feFlood flood-opacity="0" result="BackgroundImageFix"/>
<feColorMatrix in="SourceAlpha" type="matrix" values="0 0 0 0 0 0 0 0 0 0 0 0 0 0 0 0 0 0 127 0" result="hardAlpha"/>
<feOffset dx="4" dy="4"/>
<feComposite in2="hardAlpha" operator="out"/>
<feColorMatrix type="matrix" values="0 0 0 0 0 0 0 0 0 0 0 0 0 0 0 0 0 0 1 0"/>
<feBlend mode="normal" in2="BackgroundImageFix" result="effect1_dropShadow_274_106"/>
<feBlend mode="normal" in="SourceGraphic" in2="effect1_dropShadow_274_106" result="shape"/>
</filter>
</defs>
</svg>
